<?xml version="1.0" encoding="utf-8"?>
<svg viewBox="87.881 134.496 164.6228 46" xmlns="http://www.w3.org/2000/svg">
  <defs>
    <linearGradient id="paint0_linear_117_20" x1="1.18299e-07" y1="25.5556" x2="45.482" y2="25.5736" gradientUnits="userSpaceOnUse" gradientTransform="matrix(1, 0, 0, 1, 87.881134, 134.495964)">
      <stop stop-color="#2C82FF"/>
      <stop offset="1" stop-color="#12C6E3"/>
    </linearGradient>
  </defs>
  <circle cx="110.881" cy="157.496" r="20" fill="white" transform="matrix(1, 0, 0, 1, 3.552713678800501e-15, 3.552713678800501e-15)"/>
  <path d="M 110.881 134.496 C 98.181 134.496 87.881 144.796 87.881 157.496 C 87.881 170.196 98.181 180.496 110.881 180.496 C 123.581 180.496 133.881 170.196 133.881 157.496 C 133.881 144.796 123.581 134.496 110.881 134.496 Z M 108.159 145.413 C 105.2 146.475 104.669 147.717 104.669 149.861 C 104.669 150.24 104.697 150.715 104.726 151.217 C 104.754 151.701 104.782 152.194 104.782 152.574 C 104.782 154.859 103.758 156.168 101.349 156.965 L 99.765 157.487 L 101.349 158.008 C 103.749 158.795 104.782 160.114 104.782 162.4 C 104.782 162.769 104.754 163.272 104.726 163.756 C 104.697 164.259 104.669 164.733 104.669 165.112 C 104.669 167.265 105.2 168.508 108.159 169.56 L 108.159 172.52 C 101.956 171.306 100.685 169.086 100.685 165.918 C 100.685 165.662 100.714 165.216 100.733 164.752 C 100.761 164.249 100.79 163.718 100.79 163.386 C 100.79 160.313 99.462 159.052 96.209 159.052 L 95.81 159.052 L 95.81 155.903 L 96.209 155.903 C 99.462 155.903 100.79 154.651 100.79 151.568 C 100.79 151.236 100.761 150.705 100.733 150.202 C 100.704 149.747 100.685 149.301 100.685 149.036 C 100.685 145.877 101.956 143.658 108.159 142.444 L 108.159 145.413 Z M 110.881 164.486 C 109.828 164.486 108.975 163.633 108.975 162.58 C 108.975 161.527 109.828 160.673 110.881 160.673 C 111.934 160.673 112.787 161.527 112.787 162.58 C 112.787 163.633 111.934 164.486 110.881 164.486 Z M 110.881 154.319 C 109.828 154.319 108.975 153.465 108.975 152.412 C 108.975 151.36 109.828 150.506 110.881 150.506 C 111.934 150.506 112.787 151.36 112.787 152.412 C 112.787 153.465 111.934 154.319 110.881 154.319 Z M 125.952 159.07 L 125.554 159.07 C 122.3 159.07 120.973 160.322 120.973 163.405 C 120.973 163.737 121.001 164.268 121.03 164.771 C 121.058 165.226 121.077 165.672 121.077 165.937 C 121.077 169.096 119.806 171.325 113.603 172.539 L 113.603 169.579 C 116.562 168.517 117.093 167.275 117.093 165.131 C 117.093 164.752 117.065 164.277 117.037 163.775 C 117.008 163.291 116.98 162.788 116.98 162.419 C 116.98 160.133 118.004 158.824 120.413 158.027 L 121.997 157.506 L 120.413 156.984 C 118.013 156.187 116.98 154.878 116.98 152.593 C 116.98 152.223 117.008 151.72 117.037 151.236 C 117.065 150.734 117.093 150.259 117.093 149.88 C 117.093 147.727 116.562 146.485 113.603 145.432 L 113.603 142.463 C 119.806 143.677 121.077 145.896 121.077 149.055 C 121.077 149.311 121.048 149.757 121.03 150.221 C 121.001 150.724 120.973 151.255 120.973 151.587 C 120.973 154.66 122.3 155.922 125.554 155.922 L 125.952 155.922 L 125.952 159.07 Z" fill="url(#paint0_linear_117_20)" transform="matrix(1, 0, 0, 1, 3.552713678800501e-15, 3.552713678800501e-15)"/>
  <text style="fill: rgb(242, 242, 242); font-family: Arial, sans-serif; font-size: 11px; white-space: pre;" transform="matrix(2.6526219844818115, 0, 0, 2.558016061782837, -243.17373657226562, -222.77191162109375)" x="144.687" y="152.583">ZeroDev</text>
</svg>