<?xml version="1.0" encoding="utf-8"?>
<svg width="165" height="46" viewBox="0 0 165 46" fill="none"
  xmlns="http://www.w3.org/2000/svg">
  <g clip-path="url(#clip0_2119_146)">
    <path d="M23 43C34.0457 43 43 34.0457 43 23C43 11.9543 34.0457 3 23 3C11.9543 3 3 11.9543 3 23C3 34.0457 11.9543 43 23 43Z" fill="white"/>
    <path d="M23 0C10.3 0 0 10.3 0 23C0 35.7 10.3 46 23 46C35.7 46 46 35.7 46 23C46 10.3 35.7 0 23 0ZM20.278 10.917C17.319 11.979 16.788 13.221 16.788 15.365C16.788 15.744 16.816 16.219 16.845 16.721C16.873 17.205 16.901 17.698 16.901 18.078C16.901 20.363 15.877 21.672 13.468 22.469L11.884 22.991L13.468 23.512C15.868 24.299 16.901 25.618 16.901 27.904C16.901 28.273 16.873 28.776 16.845 29.26C16.816 29.763 16.788 30.237 16.788 30.616C16.788 32.769 17.319 34.012 20.278 35.064V38.024C14.075 36.81 12.804 34.59 12.804 31.422C12.804 31.166 12.833 30.72 12.852 30.256C12.88 29.753 12.909 29.222 12.909 28.89C12.909 25.817 11.581 24.556 8.328 24.556H7.929V21.407H8.328C11.581 21.407 12.909 20.155 12.909 17.072C12.909 16.74 12.88 16.209 12.852 15.706C12.823 15.251 12.804 14.805 12.804 14.54C12.804 11.381 14.075 9.162 20.278 7.948V10.917ZM23 29.99C21.947 29.99 21.094 29.137 21.094 28.084C21.094 27.031 21.947 26.177 23 26.177C24.053 26.177 24.906 27.031 24.906 28.084C24.906 29.137 24.053 29.99 23 29.99ZM23 19.823C21.947 19.823 21.094 18.969 21.094 17.916C21.094 16.864 21.947 16.01 23 16.01C24.053 16.01 24.906 16.864 24.906 17.916C24.906 18.969 24.053 19.823 23 19.823ZM38.071 24.574H37.673C34.419 24.574 33.092 25.826 33.092 28.909C33.092 29.241 33.12 29.772 33.149 30.275C33.177 30.73 33.196 31.176 33.196 31.441C33.196 34.6 31.925 36.829 25.722 38.043V35.083C28.681 34.021 29.212 32.779 29.212 30.635C29.212 30.256 29.184 29.781 29.156 29.279C29.127 28.795 29.099 28.292 29.099 27.923C29.099 25.637 30.123 24.328 32.532 23.531L34.116 23.01L32.532 22.488C30.132 21.691 29.099 20.382 29.099 18.097C29.099 17.727 29.127 17.224 29.156 16.74C29.184 16.238 29.212 15.763 29.212 15.384C29.212 13.231 28.681 11.989 25.722 10.936V7.967C31.925 9.181 33.196 11.4 33.196 14.559C33.196 14.815 33.167 15.261 33.149 15.725C33.12 16.228 33.092 16.759 33.092 17.091C33.092 20.164 34.419 21.426 37.673 21.426H38.071V24.574Z" fill="url(#paint0_linear_2119_146)"/>
    <path d="M53.3188 30.9038V28.3854L63.8261 15.2478C64.5723 14.315 65.2812 13.5035 65.9528 12.8133H54.5081V10.3928H69.1987V12.8133L57.684 27.0423L56.4388 28.4833H69.5345V30.9038H53.3188ZM82.3224 26.1189L84.9247 26.4406C84.5143 27.961 83.7541 29.1409 82.6442 29.9804C81.5342 30.8199 80.1164 31.2396 78.3909 31.2396C76.2176 31.2396 74.492 30.5727 73.2142 29.2389C71.9456 27.8957 71.3114 26.0162 71.3114 23.6005C71.3114 21.1007 71.955 19.1606 73.2421 17.7802C74.5293 16.3997 76.1989 15.7095 78.251 15.7095C80.2377 15.7095 81.8607 16.3857 83.1199 17.7382C84.3791 19.0907 85.0087 20.9934 85.0087 23.4465C85.0087 23.5958 85.004 23.8196 84.9947 24.1181H73.9137C74.007 25.7504 74.4687 27.0003 75.2988 27.8677C76.129 28.7352 77.1643 29.1689 78.4049 29.1689C79.3283 29.1689 80.1164 28.9264 80.7694 28.4414C81.4223 27.9563 81.94 27.1822 82.3224 26.1189ZM74.0536 22.0474H82.3504C82.2384 20.7976 81.9213 19.8602 81.399 19.2352C80.5968 18.2652 79.5568 17.7802 78.2789 17.7802C77.1223 17.7802 76.1476 18.1672 75.3548 18.9414C74.5713 19.7156 74.1376 20.7509 74.0536 22.0474ZM88.0727 30.9038V16.0453H90.3393V18.2978C90.9176 17.2438 91.4492 16.5489 91.9343 16.2131C92.4286 15.8774 92.9696 15.7095 93.5572 15.7095C94.406 15.7095 95.2688 15.98 96.1456 16.521L95.2781 18.8575C94.6625 18.4937 94.0469 18.3118 93.4313 18.3118C92.881 18.3118 92.3866 18.4797 91.9483 18.8155C91.5099 19.142 91.1974 19.599 91.0109 20.1866C90.731 21.0821 90.5911 22.0614 90.5911 23.1248V30.9038H88.0727ZM96.7052 23.4745C96.7052 20.7229 97.4701 18.6849 98.9998 17.3604C100.278 16.2598 101.835 15.7095 103.673 15.7095C105.716 15.7095 107.385 16.381 108.682 17.7242C109.978 19.058 110.626 20.9048 110.626 23.2647C110.626 25.1768 110.337 26.6832 109.759 27.7838C109.19 28.8751 108.355 29.7239 107.255 30.3302C106.163 30.9365 104.969 31.2396 103.673 31.2396C101.593 31.2396 99.9092 30.5727 98.622 29.2389C97.3442 27.905 96.7052 25.9836 96.7052 23.4745ZM99.2936 23.4745C99.2936 25.3773 99.7087 26.8044 100.539 27.7558C101.369 28.6979 102.414 29.1689 103.673 29.1689C104.923 29.1689 105.963 28.6932 106.793 27.7418C107.623 26.7904 108.038 25.34 108.038 23.3906C108.038 21.5531 107.618 20.1633 106.779 19.2212C105.949 18.2698 104.913 17.7941 103.673 17.7941C102.414 17.7941 101.369 18.2652 100.539 19.2072C99.7087 20.1493 99.2936 21.5717 99.2936 23.4745ZM113.914 30.9038V10.3928H120.98C122.575 10.3928 123.792 10.4908 124.631 10.6867C125.807 10.9572 126.809 11.4468 127.64 12.1557C128.722 13.0698 129.528 14.2404 130.06 15.6675C130.601 17.0853 130.872 18.7082 130.872 20.5364C130.872 22.0941 130.69 23.4745 130.326 24.6778C129.962 25.881 129.496 26.879 128.927 27.6719C128.358 28.4554 127.733 29.0756 127.052 29.5327C126.38 29.9804 125.564 30.3208 124.604 30.554C123.652 30.7872 122.556 30.9038 121.316 30.9038H113.914ZM116.629 28.4833H121.008C122.36 28.4833 123.419 28.3574 124.184 28.1056C124.958 27.8537 125.574 27.4993 126.031 27.0423C126.674 26.3987 127.173 25.5359 127.528 24.4539C127.891 23.3626 128.073 22.0428 128.073 20.4944C128.073 18.3491 127.719 16.7028 127.01 15.5556C126.31 14.399 125.457 13.6248 124.45 13.233C123.722 12.9532 122.551 12.8133 120.938 12.8133H116.629V28.4833ZM144.471 26.1189L147.073 26.4406C146.663 27.961 145.903 29.1409 144.793 29.9804C143.683 30.8199 142.265 31.2396 140.539 31.2396C138.366 31.2396 136.641 30.5727 135.363 29.2389C134.094 27.8957 133.46 26.0162 133.46 23.6005C133.46 21.1007 134.103 19.1606 135.391 17.7802C136.678 16.3997 138.347 15.7095 140.399 15.7095C142.386 15.7095 144.009 16.3857 145.268 17.7382C146.528 19.0907 147.157 20.9934 147.157 23.4465C147.157 23.5958 147.153 23.8196 147.143 24.1181H136.062C136.155 25.7504 136.617 27.0003 137.447 27.8677C138.277 28.7352 139.313 29.1689 140.553 29.1689C141.477 29.1689 142.265 28.9264 142.918 28.4414C143.571 27.9563 144.088 27.1822 144.471 26.1189ZM136.202 22.0474H144.499C144.387 20.7976 144.07 19.8602 143.547 19.2352C142.745 18.2652 141.705 17.7802 140.427 17.7802C139.271 17.7802 138.296 18.1672 137.503 18.9414C136.72 19.7156 136.286 20.7509 136.202 22.0474ZM154.377 30.9038L148.724 16.0453H151.382L154.572 24.9436C154.918 25.9043 155.235 26.9024 155.524 27.9377C155.748 27.1542 156.06 26.2121 156.461 25.1115L159.763 16.0453H162.352L156.727 30.9038H154.377Z" fill="#F2F2F2"/>
  </g>
  <defs>
    <linearGradient id="paint0_linear_2119_146" x1="0.000134119" y1="25.5556" x2="45.4821" y2="25.5736" gradientUnits="userSpaceOnUse">
      <stop stop-color="#2C82FF"/>
      <stop offset="1" stop-color="#12C6E3"/>
    </linearGradient>
    <clipPath id="clip0_2119_146">
      <rect width="164.623" height="46" fill="white"/>
    </clipPath>
  </defs>
</svg>
